solid CATIA STL
  facet normal  9.396926e-01  0.000000e+00  3.420202e-01
    outer loop
      vertex  3.394184e+01  1.949495e+01  0.000000e+00
      vertex  3.394184e+01  3.367447e+01  0.000000e+00
      vertex  3.064026e+01  2.109441e+01  9.071010e+00
    endloop
  endfacet
  facet normal  9.396926e-01  -0.000000e+00  3.420203e-01
    outer loop
      vertex  3.064026e+01  2.109441e+01  9.071010e+00
      vertex  3.394184e+01  3.367447e+01  0.000000e+00
      vertex  3.064026e+01  3.207501e+01  9.071010e+00
    endloop
  endfacet
  facet normal  8.819166e-01 -2.895006e-01  3.720383e-01
    outer loop
      vertex  3.394184e+01  1.949495e+01  0.000000e+00
      vertex  3.064026e+01  2.109441e+01  9.071010e+00
      vertex  3.357529e+01  1.837831e+01  0.000000e+00
    endloop
  endfacet
  facet normal  8.751704e-01 -3.059629e-01  3.747847e-01
    outer loop
      vertex  3.357529e+01  1.837831e+01  0.000000e+00
      vertex  3.064026e+01  2.109441e+01  9.071010e+00
      vertex  3.022557e+01  1.992339e+01  9.083380e+00
    endloop
  endfacet
  facet normal  5.971322e-01 -7.248695e-01  3.435073e-01
    outer loop
      vertex  3.357529e+01  1.837831e+01  0.000000e+00
      vertex  3.022557e+01  1.992339e+01  9.083380e+00
      vertex  3.286562e+01  1.779370e+01  0.000000e+00
    endloop
  endfacet
  facet normal  5.541493e-01 -7.601352e-01  3.392829e-01
    outer loop
      vertex  3.286562e+01  1.779370e+01  0.000000e+00
      vertex  3.022557e+01  1.992339e+01  9.083380e+00
      vertex  2.942930e+01  1.932458e+01  9.042354e+00
    endloop
  endfacet
  facet normal  2.136991e-01 -9.465861e-01  2.414696e-01
    outer loop
      vertex  3.286562e+01  1.779370e+01  0.000000e+00
      vertex  2.942930e+01  1.932458e+01  9.042354e+00
      vertex  3.193989e+01  1.758471e+01  0.000000e+00
    endloop
  endfacet
  facet normal  1.781472e-01 -9.559237e-01  2.333954e-01
    outer loop
      vertex  3.193989e+01  1.758471e+01  0.000000e+00
      vertex  2.942930e+01  1.932458e+01  9.042354e+00
      vertex  2.866895e+01  1.916933e+01  8.986824e+00
    endloop
  endfacet
  facet normal  0.000000e+00 -9.848078e-01  1.736482e-01
    outer loop
      vertex  1.794184e+01  1.758471e+01  0.000000e+00
      vertex  3.193989e+01  1.758471e+01  0.000000e+00
      vertex  1.794184e+01  1.916933e+01  8.986824e+00
    endloop
  endfacet
  facet normal  0.000000e+00 -9.848078e-01  1.736482e-01
    outer loop
      vertex  1.794184e+01  1.916933e+01  8.986824e+00
      vertex  3.193989e+01  1.758471e+01  0.000000e+00
      vertex  2.866895e+01  1.916933e+01  8.986824e+00
    endloop
  endfacet
  facet normal  -0.000000e+00  0.000000e+00  1.000000e+00
    outer loop
      vertex  2.866895e+01  3.350769e+01  9.400000e+00
      vertex  1.794184e+01  3.350769e+01  9.400000e+00
      vertex  2.931651e+01  3.337264e+01  9.400000e+00
    endloop
  endfacet
  facet normal  0.000000e+00  0.000000e+00  1.000000e+00
    outer loop
      vertex  2.931651e+01  3.337264e+01  9.400000e+00
      vertex  1.794184e+01  3.350769e+01  9.400000e+00
      vertex  1.738588e+01  3.339920e+01  9.400000e+00
    endloop
  endfacet
  facet normal  0.000000e+00  0.000000e+00  1.000000e+00
    outer loop
      vertex  2.931651e+01  3.337264e+01  9.400000e+00
      vertex  1.738588e+01  3.339920e+01  9.400000e+00
      vertex  2.976499e+01  3.306454e+01  9.400000e+00
    endloop
  endfacet
  facet normal  0.000000e+00  0.000000e+00  1.000000e+00
    outer loop
      vertex  2.976499e+01  3.306454e+01  9.400000e+00
      vertex  1.738588e+01  3.339920e+01  9.400000e+00
      vertex  1.691026e+01  3.309031e+01  9.400000e+00
    endloop
  endfacet
  facet normal  0.000000e+00  0.000000e+00  9.999999e-01
    outer loop
      vertex  2.976499e+01  3.306454e+01  9.400000e+00
      vertex  1.691026e+01  3.309031e+01  9.400000e+00
      vertex  3.006577e+01  3.261053e+01  9.400000e+00
    endloop
  endfacet
  facet normal  0.000000e+00  0.000000e+00  1.000000e+00
    outer loop
      vertex  3.006577e+01  3.261053e+01  9.400000e+00
      vertex  1.691026e+01  3.309031e+01  9.400000e+00
      vertex  1.657884e+01  3.262048e+01  9.400000e+00
    endloop
  endfacet
  facet normal  0.000000e+00  0.000000e+00  1.000000e+00
    outer loop
      vertex  3.006577e+01  3.261053e+01  9.400000e+00
      vertex  1.657884e+01  3.262048e+01  9.400000e+00
      vertex  3.017042e+01  3.207501e+01  9.400000e+00
    endloop
  endfacet
  facet normal  0.000000e+00  0.000000e+00  1.000000e+00
    outer loop
      vertex  3.017042e+01  3.207501e+01  9.400000e+00
      vertex  1.657884e+01  3.262048e+01  9.400000e+00
      vertex  1.644184e+01  3.198455e+01  9.400000e+00
    endloop
  endfacet
  facet normal  -0.000000e+00  0.000000e+00  1.000000e+00
    outer loop
      vertex  3.017042e+01  3.207501e+01  9.400000e+00
      vertex  1.644184e+01  3.198455e+01  9.400000e+00
      vertex  3.017042e+01  2.109441e+01  9.400000e+00
    endloop
  endfacet
  facet normal  0.000000e+00  0.000000e+00  1.000000e+00
    outer loop
      vertex  3.017042e+01  2.109441e+01  9.400000e+00
      vertex  1.644184e+01  3.198455e+01  9.400000e+00
      vertex  1.644184e+01  2.118487e+01  9.400000e+00
    endloop
  endfacet
  facet normal  0.000000e+00  0.000000e+00  1.000000e+00
    outer loop
      vertex  3.017042e+01  2.109441e+01  9.400000e+00
      vertex  1.644184e+01  2.118487e+01  9.400000e+00
      vertex  2.986278e+01  2.021451e+01  9.400000e+00
    endloop
  endfacet
  facet normal  0.000000e+00  0.000000e+00  1.000000e+00
    outer loop
      vertex  2.986278e+01  2.021451e+01  9.400000e+00
      vertex  1.644184e+01  2.118487e+01  9.400000e+00
      vertex  1.655067e+01  2.061528e+01  9.400000e+00
    endloop
  endfacet
  facet normal  0.000000e+00  0.000000e+00  1.000000e+00
    outer loop
      vertex  2.986278e+01  2.021451e+01  9.400000e+00
      vertex  1.655067e+01  2.061528e+01  9.400000e+00
      vertex  1.686639e+01  2.012308e+01  9.400000e+00
    endloop
  endfacet
  facet normal  -0.000000e+00  0.000000e+00  1.000000e+00
    outer loop
      vertex  2.986278e+01  2.021451e+01  9.400000e+00
      vertex  1.686639e+01  2.012308e+01  9.400000e+00
      vertex  2.925437e+01  1.977083e+01  9.400000e+00
    endloop
  endfacet
  facet normal  0.000000e+00  0.000000e+00  1.000000e+00
    outer loop
      vertex  2.925437e+01  1.977083e+01  9.400000e+00
      vertex  1.686639e+01  2.012308e+01  9.400000e+00
      vertex  1.733863e+01  1.979032e+01  9.400000e+00
    endloop
  endfacet
  facet normal  0.000000e+00  0.000000e+00  1.000000e+00
    outer loop
      vertex  2.925437e+01  1.977083e+01  9.400000e+00
      vertex  1.733863e+01  1.979032e+01  9.400000e+00
      vertex  2.866895e+01  1.966173e+01  9.400000e+00
    endloop
  endfacet
  facet normal  0.000000e+00  0.000000e+00  1.000000e+00
    outer loop
      vertex  2.866895e+01  1.966173e+01  9.400000e+00
      vertex  1.733863e+01  1.979032e+01  9.400000e+00
      vertex  1.794184e+01  1.966173e+01  9.400000e+00
    endloop
  endfacet
  facet normal  2.135302e-01  9.458467e-01  2.444971e-01
    outer loop
      vertex  3.193989e+01  3.558471e+01  0.000000e+00
      vertex  2.866895e+01  3.400009e+01  8.986824e+00
      vertex  3.286562e+01  3.537572e+01  0.000000e+00
    endloop
  endfacet
  facet normal  3.197296e-02  9.856402e-01  1.658050e-01
    outer loop
      vertex  3.286562e+01  3.537572e+01  0.000000e+00
      vertex  2.866895e+01  3.400009e+01  8.986824e+00
      vertex  2.880189e+01  3.399400e+01  8.997359e+00
    endloop
  endfacet
  facet normal  3.846159e-01  8.703951e-01  3.073809e-01
    outer loop
      vertex  3.286562e+01  3.537572e+01  0.000000e+00
      vertex  2.880189e+01  3.399400e+01  8.997359e+00
      vertex  3.009689e+01  3.339302e+01  9.078722e+00
    endloop
  endfacet
  facet normal  8.580784e-01  3.515638e-01  3.743052e-01
    outer loop
      vertex  3.064026e+01  3.207501e+01  9.071010e+00
      vertex  3.394184e+01  3.367447e+01  0.000000e+00
      vertex  3.009689e+01  3.339302e+01  9.078722e+00
    endloop
  endfacet
  facet normal  8.784641e-01  2.883667e-01  3.809796e-01
    outer loop
      vertex  3.009689e+01  3.339302e+01  9.078722e+00
      vertex  3.394184e+01  3.367447e+01  0.000000e+00
      vertex  3.357529e+01  3.479111e+01  0.000000e+00
    endloop
  endfacet
  facet normal  5.977667e-01  7.256375e-01  3.407716e-01
    outer loop
      vertex  3.009689e+01  3.339302e+01  9.078722e+00
      vertex  3.357529e+01  3.479111e+01  0.000000e+00
      vertex  3.286562e+01  3.537572e+01  0.000000e+00
    endloop
  endfacet
  facet normal  -0.000000e+00  9.848077e-01  1.736484e-01
    outer loop
      vertex  3.193989e+01  3.558471e+01  0.000000e+00
      vertex  1.794184e+01  3.558471e+01  0.000000e+00
      vertex  2.866895e+01  3.400009e+01  8.986824e+00
    endloop
  endfacet
  facet normal  0.000000e+00  9.848077e-01  1.736484e-01
    outer loop
      vertex  2.866895e+01  3.400009e+01  8.986824e+00
      vertex  1.794184e+01  3.558471e+01  0.000000e+00
      vertex  1.794184e+01  3.400009e+01  8.986824e+00
    endloop
  endfacet
  facet normal -3.065769e-01 -9.373853e-01  1.652863e-01
    outer loop
      vertex  1.794184e+01  1.758471e+01  0.000000e+00
      vertex  1.794184e+01  1.916933e+01  8.986824e+00
      vertex  1.677458e+01  1.796647e+01  0.000000e+00
    endloop
  endfacet
  facet normal -2.058088e-01 -9.660719e-01  1.560376e-01
    outer loop
      vertex  1.677458e+01  1.796647e+01  0.000000e+00
      vertex  1.794184e+01  1.916933e+01  8.986824e+00
      vertex  1.713756e+01  1.933949e+01  8.979494e+00
    endloop
  endfacet
  facet normal -5.698609e-01 -8.085465e-01  1.466669e-01
    outer loop
      vertex  1.677458e+01  1.796647e+01  0.000000e+00
      vertex  1.713756e+01  1.933949e+01  8.979494e+00
      vertex  1.650791e+01  1.977982e+01  8.960526e+00
    endloop
  endfacet
  facet normal -7.585326e-01 -6.427083e-01  1.074910e-01
    outer loop
      vertex  1.677458e+01  1.796647e+01  0.000000e+00
      vertex  1.650791e+01  1.977982e+01  8.960526e+00
      vertex  1.616177e+01  1.868972e+01  0.000000e+00
    endloop
  endfacet
  facet normal -8.377498e-01 -5.372393e-01  9.772028e-02
    outer loop
      vertex  1.616177e+01  1.868972e+01  0.000000e+00
      vertex  1.650791e+01  1.977982e+01  8.960526e+00
      vertex  1.608695e+01  2.043114e+01  8.932468e+00
    endloop
  endfacet
  facet normal -9.722653e-01 -2.309543e-01  3.688195e-02
    outer loop
      vertex  1.616177e+01  1.868972e+01  0.000000e+00
      vertex  1.608695e+01  2.043114e+01  8.932468e+00
      vertex  1.594184e+01  1.961556e+01  0.000000e+00
    endloop
  endfacet
  facet normal -9.816936e-01 -1.875731e-01  3.307417e-02
    outer loop
      vertex  1.594184e+01  1.961556e+01  0.000000e+00
      vertex  1.608695e+01  2.043114e+01  8.932468e+00
      vertex  1.594184e+01  2.118487e+01  8.900000e+00
    endloop
  endfacet
  facet normal -9.721203e-01  2.309198e-01  4.071737e-02
    outer loop
      vertex  1.594184e+01  3.355386e+01  0.000000e+00
      vertex  1.594184e+01  3.198455e+01  8.900000e+00
      vertex  1.616177e+01  3.447970e+01  0.000000e+00
    endloop
  endfacet
  facet normal -9.769590e-01  2.105561e-01  3.488874e-02
    outer loop
      vertex  1.616177e+01  3.447970e+01  0.000000e+00
      vertex  1.594184e+01  3.198455e+01  8.900000e+00
      vertex  1.612450e+01  3.282607e+01  8.936251e+00
    endloop
  endfacet
  facet normal -7.578320e-01  6.421161e-01  1.156616e-01
    outer loop
      vertex  1.616177e+01  3.447970e+01  0.000000e+00
      vertex  1.612450e+01  3.282607e+01  8.936251e+00
      vertex  1.677458e+01  3.520295e+01  0.000000e+00
    endloop
  endfacet
  facet normal -8.134108e-01  5.741206e-01  9.353283e-02
    outer loop
      vertex  1.677458e+01  3.520295e+01  0.000000e+00
      vertex  1.612450e+01  3.282607e+01  8.936251e+00
      vertex  1.656639e+01  3.344778e+01  8.963032e+00
    endloop
  endfacet
  facet normal -3.059956e-01  9.356033e-01  1.761057e-01
    outer loop
      vertex  1.677458e+01  3.520295e+01  0.000000e+00
      vertex  1.656639e+01  3.344778e+01  8.963032e+00
      vertex  1.794184e+01  3.558471e+01  0.000000e+00
    endloop
  endfacet
  facet normal -5.403987e-01  8.334067e-01  1.157694e-01
    outer loop
      vertex  1.794184e+01  3.558471e+01  0.000000e+00
      vertex  1.656639e+01  3.344778e+01  8.963032e+00
      vertex  1.720056e+01  3.385654e+01  8.980639e+00
    endloop
  endfacet
  facet normal -1.887067e-01  9.671142e-01  1.705285e-01
    outer loop
      vertex  1.794184e+01  3.558471e+01  0.000000e+00
      vertex  1.720056e+01  3.385654e+01  8.980639e+00
      vertex  1.794184e+01  3.400009e+01  8.986824e+00
    endloop
  endfacet
  facet normal -1.000000e+00  0.000000e+00  0.000000e+00
    outer loop
      vertex  1.594184e+01  3.198455e+01  8.900000e+00
      vertex  1.594184e+01  3.355386e+01  0.000000e+00
      vertex  1.594184e+01  2.118487e+01  8.900000e+00
    endloop
  endfacet
  facet normal -1.000000e+00  0.000000e+00  -0.000000e+00
    outer loop
      vertex  1.594184e+01  2.118487e+01  8.900000e+00
      vertex  1.594184e+01  3.355386e+01  0.000000e+00
      vertex  1.594184e+01  1.961556e+01  0.000000e+00
    endloop
  endfacet
  facet normal  6.361036e-02 -3.413289e-01  9.377890e-01
    outer loop
      vertex  2.866895e+01  1.966173e+01  9.400000e+00
      vertex  2.866895e+01  1.934034e+01  9.283022e+00
      vertex  2.925437e+01  1.977083e+01  9.400000e+00
    endloop
  endfacet
  facet normal  4.583250e-02 -3.195128e-01  9.464729e-01
    outer loop
      vertex  2.925437e+01  1.977083e+01  9.400000e+00
      vertex  2.866895e+01  1.934034e+01  9.283022e+00
      vertex  2.936350e+01  1.949244e+01  9.300735e+00
    endloop
  endfacet
  facet normal  1.741942e-01 -8.527837e-01  4.923579e-01
    outer loop
      vertex  2.866895e+01  1.934034e+01  9.283022e+00
      vertex  2.866895e+01  1.916933e+01  8.986824e+00
      vertex  2.936350e+01  1.949244e+01  9.300735e+00
    endloop
  endfacet
  facet normal  1.257253e-01 -8.169997e-01  5.627653e-01
    outer loop
      vertex  2.936350e+01  1.949244e+01  9.300735e+00
      vertex  2.866895e+01  1.916933e+01  8.986824e+00
      vertex  2.942930e+01  1.932458e+01  9.042354e+00
    endloop
  endfacet
  facet normal  2.931723e-01 -1.025027e-01  9.505488e-01
    outer loop
      vertex  2.986278e+01  2.021451e+01  9.400000e+00
      vertex  3.008221e+01  2.003843e+01  9.313334e+00
      vertex  3.017042e+01  2.109441e+01  9.400000e+00
    endloop
  endfacet
  facet normal  2.991113e-01 -1.028437e-01  9.486600e-01
    outer loop
      vertex  3.017042e+01  2.109441e+01  9.400000e+00
      vertex  3.008221e+01  2.003843e+01  9.313334e+00
      vertex  3.045720e+01  2.109441e+01  9.309576e+00
    endloop
  endfacet
  facet normal  7.530136e-01 -2.652649e-01  6.021669e-01
    outer loop
      vertex  3.008221e+01  2.003843e+01  9.313334e+00
      vertex  3.022557e+01  1.992339e+01  9.083380e+00
      vertex  3.045720e+01  2.109441e+01  9.309576e+00
    endloop
  endfacet
  facet normal  7.650508e-01 -2.647244e-01  5.870420e-01
    outer loop
      vertex  3.045720e+01  2.109441e+01  9.309576e+00
      vertex  3.022557e+01  1.992339e+01  9.083380e+00
      vertex  3.064026e+01  2.109441e+01  9.071010e+00
    endloop
  endfacet
  facet normal  1.912680e-01 -2.622794e-01  9.458467e-01
    outer loop
      vertex  2.925437e+01  1.977083e+01  9.400000e+00
      vertex  2.936350e+01  1.949244e+01  9.300735e+00
      vertex  2.986278e+01  2.021451e+01  9.400000e+00
    endloop
  endfacet
  facet normal  1.742925e-01 -2.513962e-01  9.520620e-01
    outer loop
      vertex  2.986278e+01  2.021451e+01  9.400000e+00
      vertex  2.936350e+01  1.949244e+01  9.300735e+00
      vertex  3.008221e+01  2.003843e+01  9.313334e+00
    endloop
  endfacet
  facet normal  4.956053e-01 -6.652669e-01  5.583864e-01
    outer loop
      vertex  2.936350e+01  1.949244e+01  9.300735e+00
      vertex  2.942930e+01  1.932458e+01  9.042354e+00
      vertex  3.008221e+01  2.003843e+01  9.313334e+00
    endloop
  endfacet
  facet normal  4.564132e-01 -6.486513e-01  6.090472e-01
    outer loop
      vertex  3.008221e+01  2.003843e+01  9.313334e+00
      vertex  2.942930e+01  1.932458e+01  9.042354e+00
      vertex  3.022557e+01  1.992339e+01  9.083380e+00
    endloop
  endfacet
  facet normal  0.000000e+00 -8.660241e-01  5.000023e-01
    outer loop
      vertex  1.794184e+01  1.916933e+01  8.986824e+00
      vertex  2.866895e+01  1.916933e+01  8.986824e+00
      vertex  1.794184e+01  1.934034e+01  9.283022e+00
    endloop
  endfacet
  facet normal  0.000000e+00 -8.660241e-01  5.000023e-01
    outer loop
      vertex  1.794184e+01  1.934034e+01  9.283022e+00
      vertex  2.866895e+01  1.916933e+01  8.986824e+00
      vertex  2.866895e+01  1.934034e+01  9.283022e+00
    endloop
  endfacet
  facet normal  0.000000e+00 -3.420216e-01  9.396921e-01
    outer loop
      vertex  1.794184e+01  1.934034e+01  9.283022e+00
      vertex  2.866895e+01  1.934034e+01  9.283022e+00
      vertex  1.794184e+01  1.966173e+01  9.400000e+00
    endloop
  endfacet
  facet normal  0.000000e+00 -3.420216e-01  9.396921e-01
    outer loop
      vertex  1.794184e+01  1.966173e+01  9.400000e+00
      vertex  2.866895e+01  1.934034e+01  9.283022e+00
      vertex  2.866895e+01  1.966173e+01  9.400000e+00
    endloop
  endfacet
  facet normal -3.033115e-01 -1.945572e-01  9.328181e-01
    outer loop
      vertex  1.662699e+01  1.989384e+01  9.274342e+00
      vertex  1.686639e+01  2.012308e+01  9.400000e+00
      vertex  1.655067e+01  2.061528e+01  9.400000e+00
    endloop
  endfacet
  facet normal -9.120792e-01 -1.593210e-01  3.777942e-01
    outer loop
      vertex  1.608695e+01  2.043114e+01  8.932468e+00
      vertex  1.608829e+01  2.118487e+01  9.253553e+00
      vertex  1.594184e+01  2.118487e+01  8.900000e+00
    endloop
  endfacet
  facet normal -7.271649e-02 -3.411161e-01  9.372044e-01
    outer loop
      vertex  1.733863e+01  1.979032e+01  9.400000e+00
      vertex  1.794184e+01  1.934034e+01  9.283022e+00
      vertex  1.794184e+01  1.966173e+01  9.400000e+00
    endloop
  endfacet
  facet normal -5.184368e-01 -7.215639e-01  4.588777e-01
    outer loop
      vertex  1.650791e+01  1.977982e+01  8.960526e+00
      vertex  1.713756e+01  1.933949e+01  8.979494e+00
      vertex  1.662699e+01  1.989384e+01  9.274342e+00
    endloop
  endfacet
  facet normal -3.816633e-01 -7.292435e-02  9.214202e-01
    outer loop
      vertex  1.644184e+01  2.118487e+01  9.400000e+00
      vertex  1.608829e+01  2.118487e+01  9.253553e+00
      vertex  1.655067e+01  2.061528e+01  9.400000e+00
    endloop
  endfacet
  facet normal -5.108056e-01 -1.996746e-01  8.361865e-01
    outer loop
      vertex  1.655067e+01  2.061528e+01  9.400000e+00
      vertex  1.608829e+01  2.118487e+01  9.253553e+00
      vertex  1.662699e+01  1.989384e+01  9.274342e+00
    endloop
  endfacet
  facet normal -6.967356e-01 -2.800865e-01  6.603870e-01
    outer loop
      vertex  1.608829e+01  2.118487e+01  9.253553e+00
      vertex  1.608695e+01  2.043114e+01  8.932468e+00
      vertex  1.662699e+01  1.989384e+01  9.274342e+00
    endloop
  endfacet
  facet normal -7.558209e-01 -4.688060e-01  4.571168e-01
    outer loop
      vertex  1.662699e+01  1.989384e+01  9.274342e+00
      vertex  1.608695e+01  2.043114e+01  8.932468e+00
      vertex  1.650791e+01  1.977982e+01  8.960526e+00
    endloop
  endfacet
  facet normal -2.075583e-01 -2.945583e-01  9.328210e-01
    outer loop
      vertex  1.686639e+01  2.012308e+01  9.400000e+00
      vertex  1.662699e+01  1.989384e+01  9.274342e+00
      vertex  1.733863e+01  1.979032e+01  9.400000e+00
    endloop
  endfacet
  facet normal -2.210450e-01 -5.120866e-01  8.300039e-01
    outer loop
      vertex  1.733863e+01  1.979032e+01  9.400000e+00
      vertex  1.662699e+01  1.989384e+01  9.274342e+00
      vertex  1.794184e+01  1.934034e+01  9.283022e+00
    endloop
  endfacet
  facet normal -2.721331e-01 -6.351288e-01  7.228796e-01
    outer loop
      vertex  1.662699e+01  1.989384e+01  9.274342e+00
      vertex  1.713756e+01  1.933949e+01  8.979494e+00
      vertex  1.794184e+01  1.934034e+01  9.283022e+00
    endloop
  endfacet
  facet normal -1.845516e-01 -8.511483e-01  4.914137e-01
    outer loop
      vertex  1.794184e+01  1.934034e+01  9.283022e+00
      vertex  1.713756e+01  1.933949e+01  8.979494e+00
      vertex  1.794184e+01  1.916933e+01  8.986824e+00
    endloop
  endfacet
  facet normal -9.659252e-01  0.000000e+00  2.588215e-01
    outer loop
      vertex  1.594184e+01  3.198455e+01  8.900000e+00
      vertex  1.594184e+01  2.118487e+01  8.900000e+00
      vertex  1.600883e+01  3.198455e+01  9.150000e+00
    endloop
  endfacet
  facet normal -9.238755e-01 -3.128013e-03  3.826803e-01
    outer loop
      vertex  1.600883e+01  3.198455e+01  9.150000e+00
      vertex  1.594184e+01  2.118487e+01  8.900000e+00
      vertex  1.608829e+01  2.118487e+01  9.253553e+00
    endloop
  endfacet
  facet normal -7.071077e-01  1.577618e-03  7.071041e-01
    outer loop
      vertex  1.600883e+01  3.198455e+01  9.150000e+00
      vertex  1.608829e+01  2.118487e+01  9.253553e+00
      vertex  1.619184e+01  3.198455e+01  9.333013e+00
    endloop
  endfacet
  facet normal -3.826822e-01  0.000000e+00  9.238800e-01
    outer loop
      vertex  1.644184e+01  2.118487e+01  9.400000e+00
      vertex  1.644184e+01  3.198455e+01  9.400000e+00
      vertex  1.608829e+01  2.118487e+01  9.253553e+00
    endloop
  endfacet
  facet normal -2.588153e-01 -4.625100e-03  9.659157e-01
    outer loop
      vertex  1.608829e+01  2.118487e+01  9.253553e+00
      vertex  1.644184e+01  3.198455e+01  9.400000e+00
      vertex  1.619184e+01  3.198455e+01  9.333013e+00
    endloop
  endfacet
  facet normal -1.693956e-01  8.535108e-01  4.927722e-01
    outer loop
      vertex  1.720056e+01  3.385654e+01  8.980639e+00
      vertex  1.794184e+01  3.382908e+01  9.283022e+00
      vertex  1.794184e+01  3.400009e+01  8.986824e+00
    endloop
  endfacet
  facet normal -2.584167e-01  5.566920e-02  9.644281e-01
    outer loop
      vertex  1.657884e+01  3.262048e+01  9.400000e+00
      vertex  1.619184e+01  3.198455e+01  9.333013e+00
      vertex  1.644184e+01  3.198455e+01  9.400000e+00
    endloop
  endfacet
  facet normal -9.474373e-01  1.947149e-01  2.538677e-01
    outer loop
      vertex  1.600883e+01  3.198455e+01  9.150000e+00
      vertex  1.612450e+01  3.282607e+01  8.936251e+00
      vertex  1.594184e+01  3.198455e+01  8.900000e+00
    endloop
  endfacet
  facet normal -6.658950e-02  3.412625e-01  9.376065e-01
    outer loop
      vertex  1.794184e+01  3.350769e+01  9.400000e+00
      vertex  1.794184e+01  3.382908e+01  9.283022e+00
      vertex  1.738588e+01  3.339920e+01  9.400000e+00
    endloop
  endfacet
  facet normal -1.994543e-01  4.890282e-01  8.491581e-01
    outer loop
      vertex  1.738588e+01  3.339920e+01  9.400000e+00
      vertex  1.794184e+01  3.382908e+01  9.283022e+00
      vertex  1.668112e+01  3.332851e+01  9.275177e+00
    endloop
  endfacet
  facet normal -2.644753e-01  6.550019e-01  7.078314e-01
    outer loop
      vertex  1.794184e+01  3.382908e+01  9.283022e+00
      vertex  1.720056e+01  3.385654e+01  8.980639e+00
      vertex  1.668112e+01  3.332851e+01  9.275177e+00
    endloop
  endfacet
  facet normal -4.894103e-01  7.393702e-01  4.623952e-01
    outer loop
      vertex  1.668112e+01  3.332851e+01  9.275177e+00
      vertex  1.720056e+01  3.385654e+01  8.980639e+00
      vertex  1.656639e+01  3.344778e+01  8.963032e+00
    endloop
  endfacet
  facet normal -1.955085e-01  3.010334e-01  9.333571e-01
    outer loop
      vertex  1.738588e+01  3.339920e+01  9.400000e+00
      vertex  1.668112e+01  3.332851e+01  9.275177e+00
      vertex  1.691026e+01  3.309031e+01  9.400000e+00
    endloop
  endfacet
  facet normal -3.364696e-01  1.624126e-01  9.275831e-01
    outer loop
      vertex  1.691026e+01  3.309031e+01  9.400000e+00
      vertex  1.668112e+01  3.332851e+01  9.275177e+00
      vertex  1.619184e+01  3.198455e+01  9.333013e+00
    endloop
  endfacet
  facet normal -6.532701e-01  4.608248e-01 -6.007317e-01
    outer loop
      vertex  1.691026e+01  3.309031e+01  9.400000e+00
      vertex  1.619184e+01  3.198455e+01  9.333013e+00
      vertex  1.657884e+01  3.262048e+01  9.400000e+00
    endloop
  endfacet
  facet normal -6.795155e-01  2.766266e-01  6.795119e-01
    outer loop
      vertex  1.619184e+01  3.198455e+01  9.333013e+00
      vertex  1.668112e+01  3.332851e+01  9.275177e+00
      vertex  1.600883e+01  3.198455e+01  9.150000e+00
    endloop
  endfacet
  facet normal -8.182618e-01  3.682062e-01  4.414431e-01
    outer loop
      vertex  1.600883e+01  3.198455e+01  9.150000e+00
      vertex  1.668112e+01  3.332851e+01  9.275177e+00
      vertex  1.656639e+01  3.344778e+01  8.963032e+00
    endloop
  endfacet
  facet normal -4.420190e-01  2.774293e-01  8.530253e-01
    outer loop
      vertex  1.600883e+01  3.198455e+01  9.150000e+00
      vertex  1.656639e+01  3.344778e+01  8.963032e+00
      vertex  1.612450e+01  3.282607e+01  8.936251e+00
    endloop
  endfacet
  facet normal  0.000000e+00  3.420216e-01  9.396921e-01
    outer loop
      vertex  1.794184e+01  3.350769e+01  9.400000e+00
      vertex  2.866895e+01  3.350769e+01  9.400000e+00
      vertex  1.794184e+01  3.382908e+01  9.283022e+00
    endloop
  endfacet
  facet normal  -0.000000e+00  3.420216e-01  9.396921e-01
    outer loop
      vertex  1.794184e+01  3.382908e+01  9.283022e+00
      vertex  2.866895e+01  3.350769e+01  9.400000e+00
      vertex  2.866895e+01  3.382908e+01  9.283022e+00
    endloop
  endfacet
  facet normal  0.000000e+00  8.660265e-01  4.999981e-01
    outer loop
      vertex  1.794184e+01  3.382908e+01  9.283022e+00
      vertex  2.866895e+01  3.382908e+01  9.283022e+00
      vertex  1.794184e+01  3.400009e+01  8.986824e+00
    endloop
  endfacet
  facet normal  -0.000000e+00  8.660265e-01  4.999981e-01
    outer loop
      vertex  1.794184e+01  3.400009e+01  8.986824e+00
      vertex  2.866895e+01  3.382908e+01  9.283022e+00
      vertex  2.866895e+01  3.400009e+01  8.986824e+00
    endloop
  endfacet
  facet normal  2.517595e-01  1.667883e-01  9.533094e-01
    outer loop
      vertex  2.996643e+01  3.326390e+01  9.311923e+00
      vertex  2.976499e+01  3.306454e+01  9.400000e+00
      vertex  3.006577e+01  3.261053e+01  9.400000e+00
    endloop
  endfacet
  facet normal  7.114786e-02  3.411548e-01  9.373107e-01
    outer loop
      vertex  2.931651e+01  3.337264e+01  9.400000e+00
      vertex  2.866895e+01  3.382908e+01  9.283022e+00
      vertex  2.866895e+01  3.350769e+01  9.400000e+00
    endloop
  endfacet
  facet normal  3.100262e-01  7.475749e-01  5.873802e-01
    outer loop
      vertex  3.009689e+01  3.339302e+01  9.078722e+00
      vertex  2.880189e+01  3.399400e+01  8.997359e+00
      vertex  2.996643e+01  3.326390e+01  9.311923e+00
    endloop
  endfacet
  facet normal  3.001879e-01  5.866027e-02  9.520746e-01
    outer loop
      vertex  3.017042e+01  3.207501e+01  9.400000e+00
      vertex  3.045720e+01  3.207501e+01  9.309576e+00
      vertex  3.006577e+01  3.261053e+01  9.400000e+00
    endloop
  endfacet
  facet normal  4.563517e-01  1.866657e-01  8.699993e-01
    outer loop
      vertex  3.006577e+01  3.261053e+01  9.400000e+00
      vertex  3.045720e+01  3.207501e+01  9.309576e+00
      vertex  2.996643e+01  3.326390e+01  9.311923e+00
    endloop
  endfacet
  facet normal  7.542189e-01  3.102011e-01  5.787305e-01
    outer loop
      vertex  3.045720e+01  3.207501e+01  9.309576e+00
      vertex  3.064026e+01  3.207501e+01  9.071010e+00
      vertex  2.996643e+01  3.326390e+01  9.311923e+00
    endloop
  endfacet
  facet normal  7.489617e-01  3.053281e-01  5.880741e-01
    outer loop
      vertex  2.996643e+01  3.326390e+01  9.311923e+00
      vertex  3.064026e+01  3.207501e+01  9.071010e+00
      vertex  3.009689e+01  3.339302e+01  9.078722e+00
    endloop
  endfacet
  facet normal  1.708060e-01  2.486306e-01  9.534191e-01
    outer loop
      vertex  2.976499e+01  3.306454e+01  9.400000e+00
      vertex  2.996643e+01  3.326390e+01  9.311923e+00
      vertex  2.931651e+01  3.337264e+01  9.400000e+00
    endloop
  endfacet
  facet normal  1.976568e-01  4.969663e-01  8.449593e-01
    outer loop
      vertex  2.931651e+01  3.337264e+01  9.400000e+00
      vertex  2.996643e+01  3.326390e+01  9.311923e+00
      vertex  2.866895e+01  3.382908e+01  9.283022e+00
    endloop
  endfacet
  facet normal  3.143916e-01  7.514102e-01  5.801213e-01
    outer loop
      vertex  2.996643e+01  3.326390e+01  9.311923e+00
      vertex  2.880189e+01  3.399400e+01  8.997359e+00
      vertex  2.866895e+01  3.382908e+01  9.283022e+00
    endloop
  endfacet
  facet normal  1.270016e-05  8.660265e-01  4.999981e-01
    outer loop
      vertex  2.866895e+01  3.382908e+01  9.283022e+00
      vertex  2.880189e+01  3.399400e+01  8.997359e+00
      vertex  2.866895e+01  3.400009e+01  8.986824e+00
    endloop
  endfacet
  facet normal  3.007058e-01  -0.000000e+00  9.537170e-01
    outer loop
      vertex  3.017042e+01  3.207501e+01  9.400000e+00
      vertex  3.017042e+01  2.109441e+01  9.400000e+00
      vertex  3.045720e+01  3.207501e+01  9.309576e+00
    endloop
  endfacet
  facet normal  3.007058e-01  0.000000e+00  9.537170e-01
    outer loop
      vertex  3.045720e+01  3.207501e+01  9.309576e+00
      vertex  3.017042e+01  2.109441e+01  9.400000e+00
      vertex  3.045720e+01  2.109441e+01  9.309576e+00
    endloop
  endfacet
  facet normal  7.933545e-01  -0.000000e+00  6.087601e-01
    outer loop
      vertex  3.045720e+01  3.207501e+01  9.309576e+00
      vertex  3.045720e+01  2.109441e+01  9.309576e+00
      vertex  3.064026e+01  3.207501e+01  9.071010e+00
    endloop
  endfacet
  facet normal  7.933545e-01  0.000000e+00  6.087601e-01
    outer loop
      vertex  3.064026e+01  3.207501e+01  9.071010e+00
      vertex  3.045720e+01  2.109441e+01  9.309576e+00
      vertex  3.064026e+01  2.109441e+01  9.071010e+00
    endloop
  endfacet
  facet normal  0.000000e+00  0.000000e+00 -1.000000e+00
    outer loop
      vertex  2.630338e+01  2.735613e+01  8.400000e+00
      vertex  2.630338e+01  2.580063e+01  8.400000e+00
      vertex  2.485338e+01  2.580063e+01  8.400000e+00
    endloop
  endfacet
  facet normal  0.000000e+00  0.000000e+00 -1.000000e+00
    outer loop
      vertex  2.630338e+01  2.735613e+01  8.400000e+00
      vertex  2.485338e+01  2.580063e+01  8.400000e+00
      vertex  2.331054e+01  2.581329e+01  8.400000e+00
    endloop
  endfacet
  facet normal  0.000000e+00  0.000000e+00 -1.000000e+00
    outer loop
      vertex  2.630338e+01  2.735613e+01  8.400000e+00
      vertex  2.331054e+01  2.581329e+01  8.400000e+00
      vertex  2.186054e+01  2.581329e+01  8.400000e+00
    endloop
  endfacet
  facet normal  0.000000e+00  0.000000e+00 -1.000000e+00
    outer loop
      vertex  2.186054e+01  2.581329e+01  8.400000e+00
      vertex  2.186054e+01  2.735613e+01  8.400000e+00
      vertex  2.331054e+01  2.735613e+01  8.400000e+00
    endloop
  endfacet
  facet normal  0.000000e+00  -0.000000e+00 -1.000000e+00
    outer loop
      vertex  2.186054e+01  2.581329e+01  8.400000e+00
      vertex  2.331054e+01  2.735613e+01  8.400000e+00
      vertex  2.485338e+01  2.735613e+01  8.400000e+00
    endloop
  endfacet
  facet normal  0.000000e+00  -0.000000e+00 -1.000000e+00
    outer loop
      vertex  2.186054e+01  2.581329e+01  8.400000e+00
      vertex  2.485338e+01  2.735613e+01  8.400000e+00
      vertex  2.630338e+01  2.735613e+01  8.400000e+00
    endloop
  endfacet
  facet normal  0.000000e+00  0.000000e+00 -1.000000e+00
    outer loop
      vertex  2.331054e+01  2.735613e+01  8.400000e+00
      vertex  2.331054e+01  2.880613e+01  8.400000e+00
      vertex  2.485338e+01  2.735613e+01  8.400000e+00
    endloop
  endfacet
  facet normal  0.000000e+00  0.000000e+00 -1.000000e+00
    outer loop
      vertex  2.485338e+01  2.735613e+01  8.400000e+00
      vertex  2.331054e+01  2.880613e+01  8.400000e+00
      vertex  2.485338e+01  2.876965e+01  8.400000e+00
    endloop
  endfacet
  facet normal  0.000000e+00  0.000000e+00 -1.000000e+00
    outer loop
      vertex  2.331054e+01  2.435063e+01  8.400000e+00
      vertex  2.331054e+01  2.581329e+01  8.400000e+00
      vertex  2.485338e+01  2.435063e+01  8.400000e+00
    endloop
  endfacet
  facet normal  0.000000e+00  0.000000e+00 -1.000000e+00
    outer loop
      vertex  2.485338e+01  2.435063e+01  8.400000e+00
      vertex  2.331054e+01  2.581329e+01  8.400000e+00
      vertex  2.485338e+01  2.580063e+01  8.400000e+00
    endloop
  endfacet
  facet normal  0.000000e+00  -0.000000e+00 -1.000000e+00
    outer loop
      vertex  1.694184e+01  3.207271e+01  8.400000e+00
      vertex  1.701816e+01  3.246178e+01  8.400000e+00
      vertex  1.723591e+01  3.279192e+01  8.400000e+00
    endloop
  endfacet
  facet normal  0.000000e+00  -0.000000e+00 -1.000000e+00
    outer loop
      vertex  1.694184e+01  3.207271e+01  8.400000e+00
      vertex  1.723591e+01  3.279192e+01  8.400000e+00
      vertex  1.755963e+01  3.301104e+01  8.400000e+00
    endloop
  endfacet
  facet normal  0.000000e+00  -0.000000e+00 -1.000000e+00
    outer loop
      vertex  1.694184e+01  3.207271e+01  8.400000e+00
      vertex  1.755963e+01  3.301104e+01  8.400000e+00
      vertex  1.794184e+01  3.308813e+01  8.400000e+00
    endloop
  endfacet
  facet normal  0.000000e+00  -0.000000e+00 -1.000000e+00
    outer loop
      vertex  1.694184e+01  3.207271e+01  8.400000e+00
      vertex  1.794184e+01  3.308813e+01  8.400000e+00
      vertex  2.327851e+01  2.905746e+01  8.400000e+00
    endloop
  endfacet
  facet normal  -0.000000e+00  0.000000e+00 -1.000000e+00
    outer loop
      vertex  1.694184e+01  3.207271e+01  8.400000e+00
      vertex  2.327851e+01  2.905746e+01  8.400000e+00
      vertex  2.197851e+01  2.811295e+01  8.400000e+00
    endloop
  endfacet
  facet normal  -0.000000e+00  0.000000e+00 -1.000000e+00
    outer loop
      vertex  1.694184e+01  3.207271e+01  8.400000e+00
      vertex  2.197851e+01  2.811295e+01  8.400000e+00
      vertex  1.694184e+01  2.109671e+01  8.400000e+00
    endloop
  endfacet
  facet normal  0.000000e+00  0.000000e+00 -1.000000e+00
    outer loop
      vertex  2.982031e+01  3.213302e+01  8.400000e+00
      vertex  2.982031e+01  2.103640e+01  8.400000e+00
      vertex  2.618540e+01  2.811295e+01  8.400000e+00
    endloop
  endfacet
  facet normal  0.000000e+00  0.000000e+00 -1.000000e+00
    outer loop
      vertex  2.982031e+01  3.213302e+01  8.400000e+00
      vertex  2.618540e+01  2.811295e+01  8.400000e+00
      vertex  2.488540e+01  2.905746e+01  8.400000e+00
    endloop
  endfacet
  facet normal  0.000000e+00  0.000000e+00 -1.000000e+00
    outer loop
      vertex  2.982031e+01  3.213302e+01  8.400000e+00
      vertex  2.488540e+01  2.905746e+01  8.400000e+00
      vertex  2.974593e+01  3.250110e+01  8.400000e+00
    endloop
  endfacet
  facet normal  0.000000e+00  0.000000e+00 -1.000000e+00
    outer loop
      vertex  1.694184e+01  2.109671e+01  8.400000e+00
      vertex  2.197851e+01  2.811295e+01  8.400000e+00
      vertex  2.148196e+01  2.658471e+01  8.400000e+00
    endloop
  endfacet
  facet normal  0.000000e+00  -0.000000e+00 -1.000000e+00
    outer loop
      vertex  1.694184e+01  2.109671e+01  8.400000e+00
      vertex  2.148196e+01  2.658471e+01  8.400000e+00
      vertex  2.197851e+01  2.505647e+01  8.400000e+00
    endloop
  endfacet
  facet normal  0.000000e+00  -0.000000e+00 -1.000000e+00
    outer loop
      vertex  1.694184e+01  2.109671e+01  8.400000e+00
      vertex  2.197851e+01  2.505647e+01  8.400000e+00
      vertex  2.327851e+01  2.411196e+01  8.400000e+00
    endloop
  endfacet
  facet normal  0.000000e+00  0.000000e+00 -1.000000e+00
    outer loop
      vertex  1.694184e+01  2.109671e+01  8.400000e+00
      vertex  2.327851e+01  2.411196e+01  8.400000e+00
      vertex  1.794184e+01  2.008128e+01  8.400000e+00
    endloop
  endfacet
  facet normal  0.000000e+00  0.000000e+00 -1.000000e+00
    outer loop
      vertex  1.694184e+01  2.109671e+01  8.400000e+00
      vertex  1.794184e+01  2.008128e+01  8.400000e+00
      vertex  1.755963e+01  2.015838e+01  8.400000e+00
    endloop
  endfacet
  facet normal  0.000000e+00  0.000000e+00 -1.000000e+00
    outer loop
      vertex  1.694184e+01  2.109671e+01  8.400000e+00
      vertex  1.755963e+01  2.015838e+01  8.400000e+00
      vertex  1.723591e+01  2.037750e+01  8.400000e+00
    endloop
  endfacet
  facet normal  0.000000e+00  0.000000e+00 -1.000000e+00
    outer loop
      vertex  1.694184e+01  2.109671e+01  8.400000e+00
      vertex  1.723591e+01  2.037750e+01  8.400000e+00
      vertex  1.701816e+01  2.070764e+01  8.400000e+00
    endloop
  endfacet
  facet normal  -0.000000e+00  0.000000e+00 -1.000000e+00
    outer loop
      vertex  2.488540e+01  2.411196e+01  8.400000e+00
      vertex  2.982031e+01  2.103640e+01  8.400000e+00
      vertex  2.974495e+01  2.066601e+01  8.400000e+00
    endloop
  endfacet
  facet normal  -0.000000e+00  0.000000e+00 -9.999999e-01
    outer loop
      vertex  2.488540e+01  2.411196e+01  8.400000e+00
      vertex  2.974495e+01  2.066601e+01  8.400000e+00
      vertex  2.952926e+01  2.035636e+01  8.400000e+00
    endloop
  endfacet
  facet normal  -0.000000e+00  0.000000e+00 -1.000000e+00
    outer loop
      vertex  2.488540e+01  2.411196e+01  8.400000e+00
      vertex  2.952926e+01  2.035636e+01  8.400000e+00
      vertex  2.920382e+01  2.015176e+01  8.400000e+00
    endloop
  endfacet
  facet normal  -0.000000e+00  0.000000e+00 -1.000000e+00
    outer loop
      vertex  2.488540e+01  2.411196e+01  8.400000e+00
      vertex  2.920382e+01  2.015176e+01  8.400000e+00
      vertex  2.881934e+01  2.008128e+01  8.400000e+00
    endloop
  endfacet
  facet normal  0.000000e+00  0.000000e+00 -9.999999e-01
    outer loop
      vertex  2.488540e+01  2.411196e+01  8.400000e+00
      vertex  2.881934e+01  2.008128e+01  8.400000e+00
      vertex  1.794184e+01  2.008128e+01  8.400000e+00
    endloop
  endfacet
  facet normal  0.000000e+00  0.000000e+00 -1.000000e+00
    outer loop
      vertex  2.488540e+01  2.411196e+01  8.400000e+00
      vertex  1.794184e+01  2.008128e+01  8.400000e+00
      vertex  2.327851e+01  2.411196e+01  8.400000e+00
    endloop
  endfacet
  facet normal  0.000000e+00  0.000000e+00 -9.999999e-01
    outer loop
      vertex  2.488540e+01  2.905746e+01  8.400000e+00
      vertex  2.327851e+01  2.905746e+01  8.400000e+00
      vertex  1.794184e+01  3.308813e+01  8.400000e+00
    endloop
  endfacet
  facet normal  0.000000e+00  0.000000e+00 -1.000000e+00
    outer loop
      vertex  2.488540e+01  2.905746e+01  8.400000e+00
      vertex  1.794184e+01  3.308813e+01  8.400000e+00
      vertex  2.881934e+01  3.308813e+01  8.400000e+00
    endloop
  endfacet
  facet normal  0.000000e+00  -0.000000e+00 -9.999999e-01
    outer loop
      vertex  2.488540e+01  2.905746e+01  8.400000e+00
      vertex  2.881934e+01  3.308813e+01  8.400000e+00
      vertex  2.920620e+01  3.301673e+01  8.400000e+00
    endloop
  endfacet
  facet normal  0.000000e+00  -0.000000e+00 -1.000000e+00
    outer loop
      vertex  2.488540e+01  2.905746e+01  8.400000e+00
      vertex  2.920620e+01  3.301673e+01  8.400000e+00
      vertex  2.953291e+01  3.280958e+01  8.400000e+00
    endloop
  endfacet
  facet normal  0.000000e+00  -0.000000e+00 -1.000000e+00
    outer loop
      vertex  2.488540e+01  2.905746e+01  8.400000e+00
      vertex  2.953291e+01  3.280958e+01  8.400000e+00
      vertex  2.974593e+01  3.250110e+01  8.400000e+00
    endloop
  endfacet
  facet normal  0.000000e+00  0.000000e+00 -1.000000e+00
    outer loop
      vertex  2.982031e+01  2.103640e+01  8.400000e+00
      vertex  2.488540e+01  2.411196e+01  8.400000e+00
      vertex  2.618540e+01  2.505647e+01  8.400000e+00
    endloop
  endfacet
  facet normal  0.000000e+00  0.000000e+00 -9.999999e-01
    outer loop
      vertex  2.982031e+01  2.103640e+01  8.400000e+00
      vertex  2.618540e+01  2.505647e+01  8.400000e+00
      vertex  2.668196e+01  2.658471e+01  8.400000e+00
    endloop
  endfacet
  facet normal  0.000000e+00  0.000000e+00 -1.000000e+00
    outer loop
      vertex  2.982031e+01  2.103640e+01  8.400000e+00
      vertex  2.668196e+01  2.658471e+01  8.400000e+00
      vertex  2.618540e+01  2.811295e+01  8.400000e+00
    endloop
  endfacet
  facet normal  0.000000e+00 -9.999999e-01  0.000000e+00
    outer loop
      vertex  2.186054e+01  2.735613e+01  8.400000e+00
      vertex  2.186054e+01  2.735613e+01  1.000000e+00
      vertex  2.331054e+01  2.735613e+01  8.400000e+00
    endloop
  endfacet
  facet normal  0.000000e+00 -9.999999e-01  -0.000000e+00
    outer loop
      vertex  2.331054e+01  2.735613e+01  8.400000e+00
      vertex  2.186054e+01  2.735613e+01  1.000000e+00
      vertex  2.331054e+01  2.735613e+01  1.000000e+00
    endloop
  endfacet
  facet normal  1.000000e+00  0.000000e+00  0.000000e+00
    outer loop
      vertex  2.186054e+01  2.581329e+01  8.400000e+00
      vertex  2.186054e+01  2.581329e+01  1.000000e+00
      vertex  2.186054e+01  2.735613e+01  8.400000e+00
    endloop
  endfacet
  facet normal  1.000000e+00  0.000000e+00  0.000000e+00
    outer loop
      vertex  2.186054e+01  2.735613e+01  8.400000e+00
      vertex  2.186054e+01  2.581329e+01  1.000000e+00
      vertex  2.186054e+01  2.735613e+01  1.000000e+00
    endloop
  endfacet
  facet normal  0.000000e+00  9.999999e-01  -0.000000e+00
    outer loop
      vertex  2.331054e+01  2.581329e+01  8.400000e+00
      vertex  2.331054e+01  2.581329e+01  1.000000e+00
      vertex  2.186054e+01  2.581329e+01  8.400000e+00
    endloop
  endfacet
  facet normal  0.000000e+00  9.999999e-01  0.000000e+00
    outer loop
      vertex  2.186054e+01  2.581329e+01  8.400000e+00
      vertex  2.331054e+01  2.581329e+01  1.000000e+00
      vertex  2.186054e+01  2.581329e+01  1.000000e+00
    endloop
  endfacet
  facet normal  1.000000e+00  0.000000e+00  0.000000e+00
    outer loop
      vertex  2.331054e+01  2.435063e+01  8.400000e+00
      vertex  2.331054e+01  2.435063e+01  1.000000e+00
      vertex  2.331054e+01  2.581329e+01  8.400000e+00
    endloop
  endfacet
  facet normal  1.000000e+00  0.000000e+00  0.000000e+00
    outer loop
      vertex  2.331054e+01  2.581329e+01  8.400000e+00
      vertex  2.331054e+01  2.435063e+01  1.000000e+00
      vertex  2.331054e+01  2.581329e+01  1.000000e+00
    endloop
  endfacet
  facet normal  0.000000e+00  1.000000e+00  -0.000000e+00
    outer loop
      vertex  2.485338e+01  2.435063e+01  8.400000e+00
      vertex  2.485338e+01  2.435063e+01  1.000000e+00
      vertex  2.331054e+01  2.435063e+01  8.400000e+00
    endloop
  endfacet
  facet normal  0.000000e+00  1.000000e+00  0.000000e+00
    outer loop
      vertex  2.331054e+01  2.435063e+01  8.400000e+00
      vertex  2.485338e+01  2.435063e+01  1.000000e+00
      vertex  2.331054e+01  2.435063e+01  1.000000e+00
    endloop
  endfacet
  facet normal -1.000000e+00  0.000000e+00  0.000000e+00
    outer loop
      vertex  2.485338e+01  2.580063e+01  8.400000e+00
      vertex  2.485338e+01  2.580063e+01  1.000000e+00
      vertex  2.485338e+01  2.435063e+01  8.400000e+00
    endloop
  endfacet
  facet normal -1.000000e+00  0.000000e+00  0.000000e+00
    outer loop
      vertex  2.485338e+01  2.435063e+01  8.400000e+00
      vertex  2.485338e+01  2.580063e+01  1.000000e+00
      vertex  2.485338e+01  2.435063e+01  1.000000e+00
    endloop
  endfacet
  facet normal  0.000000e+00  1.000000e+00  -0.000000e+00
    outer loop
      vertex  2.630338e+01  2.580063e+01  8.400000e+00
      vertex  2.630338e+01  2.580063e+01  1.000000e+00
      vertex  2.485338e+01  2.580063e+01  8.400000e+00
    endloop
  endfacet
  facet normal  0.000000e+00  1.000000e+00  0.000000e+00
    outer loop
      vertex  2.485338e+01  2.580063e+01  8.400000e+00
      vertex  2.630338e+01  2.580063e+01  1.000000e+00
      vertex  2.485338e+01  2.580063e+01  1.000000e+00
    endloop
  endfacet
  facet normal -9.999999e-01  0.000000e+00  0.000000e+00
    outer loop
      vertex  2.630338e+01  2.735613e+01  8.400000e+00
      vertex  2.630338e+01  2.735613e+01  1.000000e+00
      vertex  2.630338e+01  2.580063e+01  8.400000e+00
    endloop
  endfacet
  facet normal -9.999999e-01  0.000000e+00  0.000000e+00
    outer loop
      vertex  2.630338e+01  2.580063e+01  8.400000e+00
      vertex  2.630338e+01  2.735613e+01  1.000000e+00
      vertex  2.630338e+01  2.580063e+01  1.000000e+00
    endloop
  endfacet
  facet normal  0.000000e+00 -1.000000e+00  0.000000e+00
    outer loop
      vertex  2.485338e+01  2.735613e+01  8.400000e+00
      vertex  2.485338e+01  2.735613e+01  1.000000e+00
      vertex  2.630338e+01  2.735613e+01  8.400000e+00
    endloop
  endfacet
  facet normal  0.000000e+00 -1.000000e+00  -0.000000e+00
    outer loop
      vertex  2.630338e+01  2.735613e+01  8.400000e+00
      vertex  2.485338e+01  2.735613e+01  1.000000e+00
      vertex  2.630338e+01  2.735613e+01  1.000000e+00
    endloop
  endfacet
  facet normal -1.000000e+00  0.000000e+00  0.000000e+00
    outer loop
      vertex  2.485338e+01  2.876965e+01  8.400000e+00
      vertex  2.485338e+01  2.876965e+01  1.000000e+00
      vertex  2.485338e+01  2.735613e+01  8.400000e+00
    endloop
  endfacet
  facet normal -1.000000e+00  0.000000e+00  0.000000e+00
    outer loop
      vertex  2.485338e+01  2.735613e+01  8.400000e+00
      vertex  2.485338e+01  2.876965e+01  1.000000e+00
      vertex  2.485338e+01  2.735613e+01  1.000000e+00
    endloop
  endfacet
  facet normal -2.363926e-02 -9.997206e-01  0.000000e+00
    outer loop
      vertex  2.331054e+01  2.880613e+01  8.400000e+00
      vertex  2.331054e+01  2.880613e+01  1.000000e+00
      vertex  2.485338e+01  2.876965e+01  8.400000e+00
    endloop
  endfacet
  facet normal -2.363926e-02 -9.997206e-01  -0.000000e+00
    outer loop
      vertex  2.485338e+01  2.876965e+01  8.400000e+00
      vertex  2.331054e+01  2.880613e+01  1.000000e+00
      vertex  2.485338e+01  2.876965e+01  1.000000e+00
    endloop
  endfacet
  facet normal  1.000000e+00  0.000000e+00  0.000000e+00
    outer loop
      vertex  2.331054e+01  2.735613e+01  8.400000e+00
      vertex  2.331054e+01  2.735613e+01  1.000000e+00
      vertex  2.331054e+01  2.880613e+01  8.400000e+00
    endloop
  endfacet
  facet normal  1.000000e+00  0.000000e+00  0.000000e+00
    outer loop
      vertex  2.331054e+01  2.880613e+01  8.400000e+00
      vertex  2.331054e+01  2.735613e+01  1.000000e+00
      vertex  2.331054e+01  2.880613e+01  1.000000e+00
    endloop
  endfacet
  facet normal  9.510566e-01 -3.090166e-01  0.000000e+00
    outer loop
      vertex  2.668196e+01  2.658471e+01  1.000000e+00
      vertex  2.668196e+01  2.658471e+01  8.400000e+00
      vertex  2.618540e+01  2.505647e+01  1.000000e+00
    endloop
  endfacet
  facet normal  9.510566e-01 -3.090166e-01  0.000000e+00
    outer loop
      vertex  2.618540e+01  2.505647e+01  1.000000e+00
      vertex  2.668196e+01  2.658471e+01  8.400000e+00
      vertex  2.618540e+01  2.505647e+01  8.400000e+00
    endloop
  endfacet
  facet normal  5.877851e-01 -8.090171e-01  0.000000e+00
    outer loop
      vertex  2.618540e+01  2.505647e+01  1.000000e+00
      vertex  2.618540e+01  2.505647e+01  8.400000e+00
      vertex  2.488540e+01  2.411196e+01  1.000000e+00
    endloop
  endfacet
  facet normal  5.877851e-01 -8.090171e-01  0.000000e+00
    outer loop
      vertex  2.488540e+01  2.411196e+01  1.000000e+00
      vertex  2.618540e+01  2.505647e+01  8.400000e+00
      vertex  2.488540e+01  2.411196e+01  8.400000e+00
    endloop
  endfacet
  facet normal  0.000000e+00 -9.999999e-01  -0.000000e+00
    outer loop
      vertex  2.488540e+01  2.411196e+01  1.000000e+00
      vertex  2.488540e+01  2.411196e+01  8.400000e+00
      vertex  2.327851e+01  2.411196e+01  1.000000e+00
    endloop
  endfacet
  facet normal  0.000000e+00 -9.999999e-01  0.000000e+00
    outer loop
      vertex  2.327851e+01  2.411196e+01  1.000000e+00
      vertex  2.488540e+01  2.411196e+01  8.400000e+00
      vertex  2.327851e+01  2.411196e+01  8.400000e+00
    endloop
  endfacet
  facet normal -5.877856e-01 -8.090167e-01  -0.000000e+00
    outer loop
      vertex  2.327851e+01  2.411196e+01  1.000000e+00
      vertex  2.327851e+01  2.411196e+01  8.400000e+00
      vertex  2.197851e+01  2.505647e+01  1.000000e+00
    endloop
  endfacet
  facet normal -5.877856e-01 -8.090167e-01  0.000000e+00
    outer loop
      vertex  2.197851e+01  2.505647e+01  1.000000e+00
      vertex  2.327851e+01  2.411196e+01  8.400000e+00
      vertex  2.197851e+01  2.505647e+01  8.400000e+00
    endloop
  endfacet
  facet normal -9.510563e-01 -3.090177e-01  -0.000000e+00
    outer loop
      vertex  2.197851e+01  2.505647e+01  1.000000e+00
      vertex  2.197851e+01  2.505647e+01  8.400000e+00
      vertex  2.148196e+01  2.658471e+01  1.000000e+00
    endloop
  endfacet
  facet normal -9.510563e-01 -3.090177e-01  0.000000e+00
    outer loop
      vertex  2.148196e+01  2.658471e+01  1.000000e+00
      vertex  2.197851e+01  2.505647e+01  8.400000e+00
      vertex  2.148196e+01  2.658471e+01  8.400000e+00
    endloop
  endfacet
  facet normal -9.510563e-01  3.090177e-01  0.000000e+00
    outer loop
      vertex  2.148196e+01  2.658471e+01  1.000000e+00
      vertex  2.148196e+01  2.658471e+01  8.400000e+00
      vertex  2.197851e+01  2.811295e+01  1.000000e+00
    endloop
  endfacet
  facet normal -9.510563e-01  3.090177e-01  0.000000e+00
    outer loop
      vertex  2.197851e+01  2.811295e+01  1.000000e+00
      vertex  2.148196e+01  2.658471e+01  8.400000e+00
      vertex  2.197851e+01  2.811295e+01  8.400000e+00
    endloop
  endfacet
  facet normal -5.877856e-01  8.090167e-01  0.000000e+00
    outer loop
      vertex  2.197851e+01  2.811295e+01  1.000000e+00
      vertex  2.197851e+01  2.811295e+01  8.400000e+00
      vertex  2.327851e+01  2.905746e+01  1.000000e+00
    endloop
  endfacet
  facet normal -5.877856e-01  8.090167e-01  0.000000e+00
    outer loop
      vertex  2.327851e+01  2.905746e+01  1.000000e+00
      vertex  2.197851e+01  2.811295e+01  8.400000e+00
      vertex  2.327851e+01  2.905746e+01  8.400000e+00
    endloop
  endfacet
  facet normal  0.000000e+00  9.999999e-01  0.000000e+00
    outer loop
      vertex  2.327851e+01  2.905746e+01  1.000000e+00
      vertex  2.327851e+01  2.905746e+01  8.400000e+00
      vertex  2.488540e+01  2.905746e+01  1.000000e+00
    endloop
  endfacet
  facet normal  0.000000e+00  9.999999e-01  -0.000000e+00
    outer loop
      vertex  2.488540e+01  2.905746e+01  1.000000e+00
      vertex  2.327851e+01  2.905746e+01  8.400000e+00
      vertex  2.488540e+01  2.905746e+01  8.400000e+00
    endloop
  endfacet
  facet normal  5.877851e-01  8.090171e-01  0.000000e+00
    outer loop
      vertex  2.488540e+01  2.905746e+01  1.000000e+00
      vertex  2.488540e+01  2.905746e+01  8.400000e+00
      vertex  2.618540e+01  2.811295e+01  1.000000e+00
    endloop
  endfacet
  facet normal  5.877851e-01  8.090171e-01  -0.000000e+00
    outer loop
      vertex  2.618540e+01  2.811295e+01  1.000000e+00
      vertex  2.488540e+01  2.905746e+01  8.400000e+00
      vertex  2.618540e+01  2.811295e+01  8.400000e+00
    endloop
  endfacet
  facet normal  9.510566e-01  3.090166e-01  0.000000e+00
    outer loop
      vertex  2.618540e+01  2.811295e+01  1.000000e+00
      vertex  2.618540e+01  2.811295e+01  8.400000e+00
      vertex  2.668196e+01  2.658471e+01  1.000000e+00
    endloop
  endfacet
  facet normal  9.510566e-01  3.090166e-01  -0.000000e+00
    outer loop
      vertex  2.668196e+01  2.658471e+01  1.000000e+00
      vertex  2.618540e+01  2.811295e+01  8.400000e+00
      vertex  2.668196e+01  2.658471e+01  8.400000e+00
    endloop
  endfacet
  facet normal  0.000000e+00  -0.000000e+00 -1.000000e+00
    outer loop
      vertex  2.485338e+01  2.735613e+01  1.000000e+00
      vertex  2.618540e+01  2.811295e+01  1.000000e+00
      vertex  2.630338e+01  2.735613e+01  1.000000e+00
    endloop
  endfacet
  facet normal  0.000000e+00  0.000000e+00 -9.999999e-01
    outer loop
      vertex  2.668196e+01  2.658471e+01  1.000000e+00
      vertex  2.618540e+01  2.505647e+01  1.000000e+00
      vertex  2.630338e+01  2.580063e+01  1.000000e+00
    endloop
  endfacet
  facet normal  0.000000e+00  0.000000e+00 -1.000000e+00
    outer loop
      vertex  2.668196e+01  2.658471e+01  1.000000e+00
      vertex  2.630338e+01  2.580063e+01  1.000000e+00
      vertex  2.630338e+01  2.735613e+01  1.000000e+00
    endloop
  endfacet
  facet normal  0.000000e+00  0.000000e+00 -1.000000e+00
    outer loop
      vertex  2.668196e+01  2.658471e+01  1.000000e+00
      vertex  2.630338e+01  2.735613e+01  1.000000e+00
      vertex  2.618540e+01  2.811295e+01  1.000000e+00
    endloop
  endfacet
  facet normal  0.000000e+00  0.000000e+00 -1.000000e+00
    outer loop
      vertex  2.148196e+01  2.658471e+01  1.000000e+00
      vertex  2.197851e+01  2.811295e+01  1.000000e+00
      vertex  2.186054e+01  2.735613e+01  1.000000e+00
    endloop
  endfacet
  facet normal  0.000000e+00  -0.000000e+00 -1.000000e+00
    outer loop
      vertex  2.148196e+01  2.658471e+01  1.000000e+00
      vertex  2.186054e+01  2.735613e+01  1.000000e+00
      vertex  2.186054e+01  2.581329e+01  1.000000e+00
    endloop
  endfacet
  facet normal  -0.000000e+00  -0.000000e+00 -1.000000e+00
    outer loop
      vertex  2.148196e+01  2.658471e+01  1.000000e+00
      vertex  2.186054e+01  2.581329e+01  1.000000e+00
      vertex  2.197851e+01  2.505647e+01  1.000000e+00
    endloop
  endfacet
  facet normal  -0.000000e+00  0.000000e+00 -1.000000e+00
    outer loop
      vertex  2.197851e+01  2.505647e+01  1.000000e+00
      vertex  2.331054e+01  2.435063e+01  1.000000e+00
      vertex  2.327851e+01  2.411196e+01  1.000000e+00
    endloop
  endfacet
  facet normal  0.000000e+00  0.000000e+00 -1.000000e+00
    outer loop
      vertex  2.327851e+01  2.411196e+01  1.000000e+00
      vertex  2.331054e+01  2.435063e+01  1.000000e+00
      vertex  2.485338e+01  2.435063e+01  1.000000e+00
    endloop
  endfacet
  facet normal  0.000000e+00  -0.000000e+00 -1.000000e+00
    outer loop
      vertex  2.327851e+01  2.411196e+01  1.000000e+00
      vertex  2.485338e+01  2.435063e+01  1.000000e+00
      vertex  2.488540e+01  2.411196e+01  1.000000e+00
    endloop
  endfacet
  facet normal  0.000000e+00  -0.000000e+00 -1.000000e+00
    outer loop
      vertex  2.186054e+01  2.735613e+01  1.000000e+00
      vertex  2.197851e+01  2.811295e+01  1.000000e+00
      vertex  2.331054e+01  2.735613e+01  1.000000e+00
    endloop
  endfacet
  facet normal  0.000000e+00  0.000000e+00 -1.000000e+00
    outer loop
      vertex  2.331054e+01  2.735613e+01  1.000000e+00
      vertex  2.197851e+01  2.811295e+01  1.000000e+00
      vertex  2.327851e+01  2.905746e+01  1.000000e+00
    endloop
  endfacet
  facet normal  0.000000e+00  0.000000e+00 -1.000000e+00
    outer loop
      vertex  2.331054e+01  2.735613e+01  1.000000e+00
      vertex  2.327851e+01  2.905746e+01  1.000000e+00
      vertex  2.331054e+01  2.880613e+01  1.000000e+00
    endloop
  endfacet
  facet normal  0.000000e+00  0.000000e+00 -1.000000e+00
    outer loop
      vertex  2.331054e+01  2.880613e+01  1.000000e+00
      vertex  2.327851e+01  2.905746e+01  1.000000e+00
      vertex  2.488540e+01  2.905746e+01  1.000000e+00
    endloop
  endfacet
  facet normal  0.000000e+00  0.000000e+00 -9.999999e-01
    outer loop
      vertex  2.331054e+01  2.880613e+01  1.000000e+00
      vertex  2.488540e+01  2.905746e+01  1.000000e+00
      vertex  2.485338e+01  2.876965e+01  1.000000e+00
    endloop
  endfacet
  facet normal  0.000000e+00  0.000000e+00 -1.000000e+00
    outer loop
      vertex  2.485338e+01  2.876965e+01  1.000000e+00
      vertex  2.488540e+01  2.905746e+01  1.000000e+00
      vertex  2.618540e+01  2.811295e+01  1.000000e+00
    endloop
  endfacet
  facet normal  -0.000000e+00  0.000000e+00 -9.999999e-01
    outer loop
      vertex  2.485338e+01  2.876965e+01  1.000000e+00
      vertex  2.618540e+01  2.811295e+01  1.000000e+00
      vertex  2.485338e+01  2.735613e+01  1.000000e+00
    endloop
  endfacet
  facet normal  0.000000e+00  0.000000e+00 -9.999999e-01
    outer loop
      vertex  2.197851e+01  2.505647e+01  1.000000e+00
      vertex  2.186054e+01  2.581329e+01  1.000000e+00
      vertex  2.331054e+01  2.435063e+01  1.000000e+00
    endloop
  endfacet
  facet normal  0.000000e+00  0.000000e+00 -1.000000e+00
    outer loop
      vertex  2.331054e+01  2.435063e+01  1.000000e+00
      vertex  2.186054e+01  2.581329e+01  1.000000e+00
      vertex  2.331054e+01  2.581329e+01  1.000000e+00
    endloop
  endfacet
  facet normal  0.000000e+00  0.000000e+00 -1.000000e+00
    outer loop
      vertex  2.488540e+01  2.411196e+01  1.000000e+00
      vertex  2.485338e+01  2.435063e+01  1.000000e+00
      vertex  2.618540e+01  2.505647e+01  1.000000e+00
    endloop
  endfacet
  facet normal  -0.000000e+00  0.000000e+00 -1.000000e+00
    outer loop
      vertex  2.618540e+01  2.505647e+01  1.000000e+00
      vertex  2.485338e+01  2.435063e+01  1.000000e+00
      vertex  2.485338e+01  2.580063e+01  1.000000e+00
    endloop
  endfacet
  facet normal  0.000000e+00  0.000000e+00 -1.000000e+00
    outer loop
      vertex  2.618540e+01  2.505647e+01  1.000000e+00
      vertex  2.485338e+01  2.580063e+01  1.000000e+00
      vertex  2.630338e+01  2.580063e+01  1.000000e+00
    endloop
  endfacet
  facet normal  0.000000e+00  0.000000e+00 -1.000000e+00
    outer loop
      vertex  3.357529e+01  3.479111e+01  0.000000e+00
      vertex  3.226117e+01  3.449880e+01  0.000000e+00
      vertex  3.187669e+01  3.456928e+01  0.000000e+00
    endloop
  endfacet
  facet normal  0.000000e+00  -0.000000e+00 -1.000000e+00
    outer loop
      vertex  1.594184e+01  3.355386e+01  0.000000e+00
      vertex  1.616177e+01  3.447970e+01  0.000000e+00
      vertex  1.755827e+01  3.449162e+01  0.000000e+00
    endloop
  endfacet
  facet normal  0.000000e+00  0.000000e+00 -9.999999e-01
    outer loop
      vertex  1.594184e+01  3.355386e+01  0.000000e+00
      vertex  1.755827e+01  3.449162e+01  0.000000e+00
      vertex  1.723383e+01  3.427095e+01  0.000000e+00
    endloop
  endfacet
  facet normal  0.000000e+00  0.000000e+00 -1.000000e+00
    outer loop
      vertex  1.594184e+01  3.355386e+01  0.000000e+00
      vertex  1.723383e+01  3.427095e+01  0.000000e+00
      vertex  1.701760e+01  3.394155e+01  0.000000e+00
    endloop
  endfacet
  facet normal  0.000000e+00  0.000000e+00 -1.000000e+00
    outer loop
      vertex  1.594184e+01  3.355386e+01  0.000000e+00
      vertex  1.701760e+01  3.394155e+01  0.000000e+00
      vertex  1.694184e+01  3.355386e+01  0.000000e+00
    endloop
  endfacet
  facet normal  -0.000000e+00  -0.000000e+00 -9.999999e-01
    outer loop
      vertex  1.594184e+01  3.355386e+01  0.000000e+00
      vertex  1.694184e+01  3.355386e+01  0.000000e+00
      vertex  1.694184e+01  1.961556e+01  0.000000e+00
    endloop
  endfacet
  facet normal  0.000000e+00  0.000000e+00 -9.999999e-01
    outer loop
      vertex  1.594184e+01  3.355386e+01  0.000000e+00
      vertex  1.694184e+01  1.961556e+01  0.000000e+00
      vertex  1.594184e+01  1.961556e+01  0.000000e+00
    endloop
  endfacet
  facet normal  0.000000e+00  0.000000e+00 -1.000000e+00
    outer loop
      vertex  3.394184e+01  3.367447e+01  0.000000e+00
      vertex  3.394184e+01  1.949495e+01  0.000000e+00
      vertex  3.287766e+01  1.955526e+01  0.000000e+00
    endloop
  endfacet
  facet normal  0.000000e+00  0.000000e+00 -9.999999e-01
    outer loop
      vertex  3.394184e+01  3.367447e+01  0.000000e+00
      vertex  3.287766e+01  1.955526e+01  0.000000e+00
      vertex  3.287766e+01  3.361416e+01  0.000000e+00
    endloop
  endfacet
  facet normal  0.000000e+00  0.000000e+00 -9.999999e-01
    outer loop
      vertex  3.394184e+01  3.367447e+01  0.000000e+00
      vertex  3.287766e+01  3.361416e+01  0.000000e+00
      vertex  3.280230e+01  3.398455e+01  0.000000e+00
    endloop
  endfacet
  facet normal  0.000000e+00  0.000000e+00 -1.000000e+00
    outer loop
      vertex  3.394184e+01  3.367447e+01  0.000000e+00
      vertex  3.280230e+01  3.398455e+01  0.000000e+00
      vertex  3.258661e+01  3.429421e+01  0.000000e+00
    endloop
  endfacet
  facet normal  0.000000e+00  0.000000e+00 -1.000000e+00
    outer loop
      vertex  3.394184e+01  3.367447e+01  0.000000e+00
      vertex  3.258661e+01  3.429421e+01  0.000000e+00
      vertex  3.226117e+01  3.449880e+01  0.000000e+00
    endloop
  endfacet
  facet normal  0.000000e+00  0.000000e+00 -9.999999e-01
    outer loop
      vertex  3.394184e+01  3.367447e+01  0.000000e+00
      vertex  3.226117e+01  3.449880e+01  0.000000e+00
      vertex  3.357529e+01  3.479111e+01  0.000000e+00
    endloop
  endfacet
  facet normal  0.000000e+00  0.000000e+00 -1.000000e+00
    outer loop
      vertex  1.616177e+01  1.868972e+01  0.000000e+00
      vertex  1.594184e+01  1.961556e+01  0.000000e+00
      vertex  1.694184e+01  1.961556e+01  0.000000e+00
    endloop
  endfacet
  facet normal  0.000000e+00  -0.000000e+00 -9.999999e-01
    outer loop
      vertex  1.616177e+01  1.868972e+01  0.000000e+00
      vertex  1.694184e+01  1.961556e+01  0.000000e+00
      vertex  1.701816e+01  1.922650e+01  0.000000e+00
    endloop
  endfacet
  facet normal  0.000000e+00  -0.000000e+00 -1.000000e+00
    outer loop
      vertex  1.616177e+01  1.868972e+01  0.000000e+00
      vertex  1.701816e+01  1.922650e+01  0.000000e+00
      vertex  1.723591e+01  1.889635e+01  0.000000e+00
    endloop
  endfacet
  facet normal  0.000000e+00  -0.000000e+00 -1.000000e+00
    outer loop
      vertex  1.616177e+01  1.868972e+01  0.000000e+00
      vertex  1.723591e+01  1.889635e+01  0.000000e+00
      vertex  1.755963e+01  1.867723e+01  0.000000e+00
    endloop
  endfacet
  facet normal  -0.000000e+00  -0.000000e+00 -1.000000e+00
    outer loop
      vertex  1.616177e+01  1.868972e+01  0.000000e+00
      vertex  1.755963e+01  1.867723e+01  0.000000e+00
      vertex  1.794184e+01  1.860014e+01  0.000000e+00
    endloop
  endfacet
  facet normal  -0.000000e+00  0.000000e+00 -9.999999e-01
    outer loop
      vertex  1.616177e+01  1.868972e+01  0.000000e+00
      vertex  1.794184e+01  1.860014e+01  0.000000e+00
      vertex  1.677458e+01  1.796647e+01  0.000000e+00
    endloop
  endfacet
  facet normal  0.000000e+00  0.000000e+00 -1.000000e+00
    outer loop
      vertex  3.357529e+01  1.837831e+01  0.000000e+00
      vertex  3.187669e+01  1.860014e+01  0.000000e+00
      vertex  3.226117e+01  1.867062e+01  0.000000e+00
    endloop
  endfacet
  facet normal  0.000000e+00  0.000000e+00 -1.000000e+00
    outer loop
      vertex  3.357529e+01  1.837831e+01  0.000000e+00
      vertex  3.226117e+01  1.867062e+01  0.000000e+00
      vertex  3.258661e+01  1.887521e+01  0.000000e+00
    endloop
  endfacet
  facet normal  0.000000e+00  0.000000e+00 -1.000000e+00
    outer loop
      vertex  3.357529e+01  1.837831e+01  0.000000e+00
      vertex  3.258661e+01  1.887521e+01  0.000000e+00
      vertex  3.280230e+01  1.918487e+01  0.000000e+00
    endloop
  endfacet
  facet normal  0.000000e+00  0.000000e+00 -1.000000e+00
    outer loop
      vertex  3.357529e+01  1.837831e+01  0.000000e+00
      vertex  3.280230e+01  1.918487e+01  0.000000e+00
      vertex  3.287766e+01  1.955526e+01  0.000000e+00
    endloop
  endfacet
  facet normal  0.000000e+00  0.000000e+00 -9.999999e-01
    outer loop
      vertex  3.357529e+01  1.837831e+01  0.000000e+00
      vertex  3.287766e+01  1.955526e+01  0.000000e+00
      vertex  3.394184e+01  1.949495e+01  0.000000e+00
    endloop
  endfacet
  facet normal  0.000000e+00  -0.000000e+00 -1.000000e+00
    outer loop
      vertex  1.677458e+01  1.796647e+01  0.000000e+00
      vertex  1.794184e+01  1.860014e+01  0.000000e+00
      vertex  1.794184e+01  1.758471e+01  0.000000e+00
    endloop
  endfacet
  facet normal  0.000000e+00  0.000000e+00 -1.000000e+00
    outer loop
      vertex  1.794184e+01  1.758471e+01  0.000000e+00
      vertex  1.794184e+01  1.860014e+01  0.000000e+00
      vertex  3.187669e+01  1.860014e+01  0.000000e+00
    endloop
  endfacet
  facet normal  0.000000e+00  -0.000000e+00 -1.000000e+00
    outer loop
      vertex  1.794184e+01  1.758471e+01  0.000000e+00
      vertex  3.187669e+01  1.860014e+01  0.000000e+00
      vertex  3.193989e+01  1.758471e+01  0.000000e+00
    endloop
  endfacet
  facet normal  0.000000e+00  0.000000e+00 -9.999999e-01
    outer loop
      vertex  3.193989e+01  1.758471e+01  0.000000e+00
      vertex  3.187669e+01  1.860014e+01  0.000000e+00
      vertex  3.357529e+01  1.837831e+01  0.000000e+00
    endloop
  endfacet
  facet normal  0.000000e+00  0.000000e+00 -1.000000e+00
    outer loop
      vertex  3.193989e+01  1.758471e+01  0.000000e+00
      vertex  3.357529e+01  1.837831e+01  0.000000e+00
      vertex  3.286562e+01  1.779370e+01  0.000000e+00
    endloop
  endfacet
  facet normal  0.000000e+00  -0.000000e+00 -1.000000e+00
    outer loop
      vertex  1.677458e+01  3.520295e+01  0.000000e+00
      vertex  1.794184e+01  3.558471e+01  0.000000e+00
      vertex  1.794184e+01  3.456928e+01  0.000000e+00
    endloop
  endfacet
  facet normal  0.000000e+00  0.000000e+00 -1.000000e+00
    outer loop
      vertex  1.794184e+01  3.456928e+01  0.000000e+00
      vertex  1.794184e+01  3.558471e+01  0.000000e+00
      vertex  3.193989e+01  3.558471e+01  0.000000e+00
    endloop
  endfacet
  facet normal  0.000000e+00  0.000000e+00 -1.000000e+00
    outer loop
      vertex  1.794184e+01  3.456928e+01  0.000000e+00
      vertex  3.193989e+01  3.558471e+01  0.000000e+00
      vertex  3.187669e+01  3.456928e+01  0.000000e+00
    endloop
  endfacet
  facet normal  0.000000e+00  0.000000e+00 -9.999999e-01
    outer loop
      vertex  3.187669e+01  3.456928e+01  0.000000e+00
      vertex  3.193989e+01  3.558471e+01  0.000000e+00
      vertex  3.286562e+01  3.537572e+01  0.000000e+00
    endloop
  endfacet
  facet normal  0.000000e+00  -0.000000e+00 -1.000000e+00
    outer loop
      vertex  3.187669e+01  3.456928e+01  0.000000e+00
      vertex  3.286562e+01  3.537572e+01  0.000000e+00
      vertex  3.357529e+01  3.479111e+01  0.000000e+00
    endloop
  endfacet
  facet normal  0.000000e+00  0.000000e+00 -1.000000e+00
    outer loop
      vertex  1.755827e+01  3.449162e+01  0.000000e+00
      vertex  1.616177e+01  3.447970e+01  0.000000e+00
      vertex  1.794184e+01  3.456928e+01  0.000000e+00
    endloop
  endfacet
  facet normal  -0.000000e+00  0.000000e+00 -1.000000e+00
    outer loop
      vertex  1.794184e+01  3.456928e+01  0.000000e+00
      vertex  1.616177e+01  3.447970e+01  0.000000e+00
      vertex  1.677458e+01  3.520295e+01  0.000000e+00
    endloop
  endfacet
  facet normal  9.999999e-01  0.000000e+00  0.000000e+00
    outer loop
      vertex  1.694184e+01  3.355386e+01  0.000000e+00
      vertex  1.694184e+01  3.207271e+01  8.400000e+00
      vertex  1.694184e+01  1.961556e+01  0.000000e+00
    endloop
  endfacet
  facet normal  1.000000e+00  0.000000e+00  0.000000e+00
    outer loop
      vertex  1.694184e+01  1.961556e+01  0.000000e+00
      vertex  1.694184e+01  3.207271e+01  8.400000e+00
      vertex  1.694184e+01  2.109671e+01  8.400000e+00
    endloop
  endfacet
  facet normal  8.320932e-01 -5.462154e-01 -9.627840e-02
    outer loop
      vertex  1.723383e+01  3.427095e+01  0.000000e+00
      vertex  1.701816e+01  3.246178e+01  8.400000e+00
      vertex  1.701760e+01  3.394155e+01  0.000000e+00
    endloop
  endfacet
  facet normal  9.807342e-01 -1.923736e-01 -3.395439e-02
    outer loop
      vertex  1.701760e+01  3.394155e+01  0.000000e+00
      vertex  1.701816e+01  3.246178e+01  8.400000e+00
      vertex  1.694184e+01  3.207271e+01  8.400000e+00
    endloop
  endfacet
  facet normal  9.808772e-01 -1.916712e-01 -3.379682e-02
    outer loop
      vertex  1.701760e+01  3.394155e+01  0.000000e+00
      vertex  1.694184e+01  3.207271e+01  8.400000e+00
      vertex  1.694184e+01  3.355386e+01  0.000000e+00
    endloop
  endfacet
  facet normal  8.308594e-01 -5.480165e-01 -9.669799e-02
    outer loop
      vertex  1.701816e+01  3.246178e+01  8.400000e+00
      vertex  1.723383e+01  3.427095e+01  0.000000e+00
      vertex  1.723591e+01  3.279192e+01  8.400000e+00
    endloop
  endfacet
  facet normal  5.565047e-01 -8.182337e-01 -1.442089e-01
    outer loop
      vertex  1.723591e+01  3.279192e+01  8.400000e+00
      vertex  1.723383e+01  3.427095e+01  0.000000e+00
      vertex  1.755827e+01  3.449162e+01  0.000000e+00
    endloop
  endfacet
  facet normal  5.546612e-01 -8.194294e-01 -1.445216e-01
    outer loop
      vertex  1.723591e+01  3.279192e+01  8.400000e+00
      vertex  1.755827e+01  3.449162e+01  0.000000e+00
      vertex  1.755963e+01  3.301104e+01  8.400000e+00
    endloop
  endfacet
  facet normal  1.955610e-01 -9.657984e-01 -1.702623e-01
    outer loop
      vertex  1.755963e+01  3.301104e+01  8.400000e+00
      vertex  1.755827e+01  3.449162e+01  0.000000e+00
      vertex  1.794184e+01  3.456928e+01  0.000000e+00
    endloop
  endfacet
  facet normal  1.948383e-01 -9.659342e-01 -1.703204e-01
    outer loop
      vertex  1.755963e+01  3.301104e+01  8.400000e+00
      vertex  1.794184e+01  3.456928e+01  0.000000e+00
      vertex  1.794184e+01  3.308813e+01  8.400000e+00
    endloop
  endfacet
  facet normal  5.546606e-01  8.194357e-01 -1.444885e-01
    outer loop
      vertex  1.723591e+01  1.889635e+01  0.000000e+00
      vertex  1.755963e+01  2.015838e+01  8.400000e+00
      vertex  1.755963e+01  1.867723e+01  0.000000e+00
    endloop
  endfacet
  facet normal  1.948430e-01  9.659333e-01 -1.703200e-01
    outer loop
      vertex  1.755963e+01  1.867723e+01  0.000000e+00
      vertex  1.755963e+01  2.015838e+01  8.400000e+00
      vertex  1.794184e+01  2.008128e+01  8.400000e+00
    endloop
  endfacet
  facet normal  1.948430e-01  9.659333e-01 -1.703200e-01
    outer loop
      vertex  1.755963e+01  1.867723e+01  0.000000e+00
      vertex  1.794184e+01  2.008128e+01  8.400000e+00
      vertex  1.794184e+01  1.860014e+01  0.000000e+00
    endloop
  endfacet
  facet normal  5.546640e-01  8.194334e-01 -1.444883e-01
    outer loop
      vertex  1.755963e+01  2.015838e+01  8.400000e+00
      vertex  1.723591e+01  1.889635e+01  0.000000e+00
      vertex  1.723591e+01  2.037750e+01  8.400000e+00
    endloop
  endfacet
  facet normal  8.308664e-01  5.480179e-01 -9.663042e-02
    outer loop
      vertex  1.723591e+01  2.037750e+01  8.400000e+00
      vertex  1.723591e+01  1.889635e+01  0.000000e+00
      vertex  1.701816e+01  1.922650e+01  0.000000e+00
    endloop
  endfacet
  facet normal  8.308664e-01  5.480179e-01 -9.663042e-02
    outer loop
      vertex  1.723591e+01  2.037750e+01  8.400000e+00
      vertex  1.701816e+01  1.922650e+01  0.000000e+00
      vertex  1.701816e+01  2.070764e+01  8.400000e+00
    endloop
  endfacet
  facet normal  9.807351e-01  1.923747e-01 -3.392088e-02
    outer loop
      vertex  1.701816e+01  2.070764e+01  8.400000e+00
      vertex  1.701816e+01  1.922650e+01  0.000000e+00
      vertex  1.694184e+01  1.961556e+01  0.000000e+00
    endloop
  endfacet
  facet normal  9.807349e-01  1.923757e-01 -3.392100e-02
    outer loop
      vertex  1.701816e+01  2.070764e+01  8.400000e+00
      vertex  1.694184e+01  1.961556e+01  0.000000e+00
      vertex  1.694184e+01  2.109671e+01  8.400000e+00
    endloop
  endfacet
  facet normal  0.000000e+00 -9.848077e-01 -1.736483e-01
    outer loop
      vertex  3.187669e+01  3.456928e+01  0.000000e+00
      vertex  2.881934e+01  3.308813e+01  8.400000e+00
      vertex  1.794184e+01  3.456928e+01  0.000000e+00
    endloop
  endfacet
  facet normal  0.000000e+00 -9.848077e-01 -1.736483e-01
    outer loop
      vertex  1.794184e+01  3.456928e+01  0.000000e+00
      vertex  2.881934e+01  3.308813e+01  8.400000e+00
      vertex  1.794184e+01  3.308813e+01  8.400000e+00
    endloop
  endfacet
  facet normal -5.034451e-01 -8.008208e-01 -3.243903e-01
    outer loop
      vertex  3.258661e+01  3.429421e+01  0.000000e+00
      vertex  2.920620e+01  3.301673e+01  8.400000e+00
      vertex  3.226117e+01  3.449880e+01  0.000000e+00
    endloop
  endfacet
  facet normal -1.765112e-01 -9.563409e-01 -2.329285e-01
    outer loop
      vertex  3.226117e+01  3.449880e+01  0.000000e+00
      vertex  2.920620e+01  3.301673e+01  8.400000e+00
      vertex  2.881934e+01  3.308813e+01  8.400000e+00
    endloop
  endfacet
  facet normal -1.753684e-01 -9.566524e-01 -2.325126e-01
    outer loop
      vertex  3.226117e+01  3.449880e+01  0.000000e+00
      vertex  2.881934e+01  3.308813e+01  8.400000e+00
      vertex  3.187669e+01  3.456928e+01  0.000000e+00
    endloop
  endfacet
  facet normal -5.063845e-01 -7.986205e-01 -3.252386e-01
    outer loop
      vertex  2.920620e+01  3.301673e+01  8.400000e+00
      vertex  3.258661e+01  3.429421e+01  0.000000e+00
      vertex  2.953291e+01  3.280958e+01  8.400000e+00
    endloop
  endfacet
  facet normal -7.620505e-01 -5.308023e-01 -3.708478e-01
    outer loop
      vertex  2.953291e+01  3.280958e+01  8.400000e+00
      vertex  3.258661e+01  3.429421e+01  0.000000e+00
      vertex  3.280230e+01  3.398455e+01  0.000000e+00
    endloop
  endfacet
  facet normal -7.640706e-01 -5.276477e-01 -3.711929e-01
    outer loop
      vertex  2.953291e+01  3.280958e+01  8.400000e+00
      vertex  3.280230e+01  3.398455e+01  0.000000e+00
      vertex  2.974593e+01  3.250110e+01  8.400000e+00
    endloop
  endfacet
  facet normal -9.124037e-01 -1.856477e-01 -3.647665e-01
    outer loop
      vertex  2.974593e+01  3.250110e+01  8.400000e+00
      vertex  3.280230e+01  3.398455e+01  0.000000e+00
      vertex  3.287766e+01  3.361416e+01  0.000000e+00
    endloop
  endfacet
  facet normal -9.126752e-01 -1.844271e-01 -3.647060e-01
    outer loop
      vertex  2.974593e+01  3.250110e+01  8.400000e+00
      vertex  3.287766e+01  3.361416e+01  0.000000e+00
      vertex  2.982031e+01  3.213302e+01  8.400000e+00
    endloop
  endfacet
  facet normal  0.000000e+00  9.848077e-01 -1.736481e-01
    outer loop
      vertex  1.794184e+01  1.860014e+01  0.000000e+00
      vertex  1.794184e+01  2.008128e+01  8.400000e+00
      vertex  3.187669e+01  1.860014e+01  0.000000e+00
    endloop
  endfacet
  facet normal  0.000000e+00  9.848078e-01 -1.736481e-01
    outer loop
      vertex  3.187669e+01  1.860014e+01  0.000000e+00
      vertex  1.794184e+01  2.008128e+01  8.400000e+00
      vertex  2.881934e+01  2.008128e+01  8.400000e+00
    endloop
  endfacet
  facet normal -7.620178e-01  5.307823e-01 -3.709433e-01
    outer loop
      vertex  3.258661e+01  1.887521e+01  0.000000e+00
      vertex  2.974495e+01  2.066601e+01  8.400000e+00
      vertex  3.280230e+01  1.918487e+01  0.000000e+00
    endloop
  endfacet
  facet normal -9.123850e-01  1.856438e-01 -3.648151e-01
    outer loop
      vertex  3.280230e+01  1.918487e+01  0.000000e+00
      vertex  2.974495e+01  2.066601e+01  8.400000e+00
      vertex  2.982031e+01  2.103640e+01  8.400000e+00
    endloop
  endfacet
  facet normal -9.123852e-01  1.856429e-01 -3.648149e-01
    outer loop
      vertex  3.280230e+01  1.918487e+01  0.000000e+00
      vertex  2.982031e+01  2.103640e+01  8.400000e+00
      vertex  3.287766e+01  1.955526e+01  0.000000e+00
    endloop
  endfacet
  facet normal -7.620155e-01  5.307857e-01 -3.709432e-01
    outer loop
      vertex  2.974495e+01  2.066601e+01  8.400000e+00
      vertex  3.258661e+01  1.887521e+01  0.000000e+00
      vertex  2.952926e+01  2.035636e+01  8.400000e+00
    endloop
  endfacet
  facet normal -5.034361e-01  8.008065e-01 -3.244397e-01
    outer loop
      vertex  2.952926e+01  2.035636e+01  8.400000e+00
      vertex  3.258661e+01  1.887521e+01  0.000000e+00
      vertex  3.226117e+01  1.867062e+01  0.000000e+00
    endloop
  endfacet
  facet normal -5.034382e-01  8.008049e-01 -3.244401e-01
    outer loop
      vertex  2.952926e+01  2.035636e+01  8.400000e+00
      vertex  3.226117e+01  1.867062e+01  0.000000e+00
      vertex  2.920382e+01  2.015176e+01  8.400000e+00
    endloop
  endfacet
  facet normal -1.753681e-01  9.566525e-01 -2.325125e-01
    outer loop
      vertex  2.920382e+01  2.015176e+01  8.400000e+00
      vertex  3.226117e+01  1.867062e+01  0.000000e+00
      vertex  3.187669e+01  1.860014e+01  0.000000e+00
    endloop
  endfacet
  facet normal -1.753727e-01  9.566513e-01 -2.325138e-01
    outer loop
      vertex  2.920382e+01  2.015176e+01  8.400000e+00
      vertex  3.187669e+01  1.860014e+01  0.000000e+00
      vertex  2.881934e+01  2.008128e+01  8.400000e+00
    endloop
  endfacet
  facet normal -9.396927e-01  0.000000e+00 -3.420202e-01
    outer loop
      vertex  3.287766e+01  1.955526e+01  0.000000e+00
      vertex  2.982031e+01  2.103640e+01  8.400000e+00
      vertex  3.287766e+01  3.361416e+01  0.000000e+00
    endloop
  endfacet
  facet normal -9.396926e-01  0.000000e+00 -3.420202e-01
    outer loop
      vertex  3.287766e+01  3.361416e+01  0.000000e+00
      vertex  2.982031e+01  2.103640e+01  8.400000e+00
      vertex  2.982031e+01  3.213302e+01  8.400000e+00
    endloop
  endfacet
endsolid CATIA STL
